# xmcd
#
# Track frame offsets: 
#        150
#        24860
#        42592
#        64819
#        83207
#        107937
#        128477
#        147547
#        170552
#        190677
#        210592
#        226289
#        246736
#        266157
#        283849
#        308182
#        330244
#
# Disc length: 4777 seconds
#
# Revision: 0
# Processed by: cddbd v1.5.2PL0 Copyright (c) Steve Scherf et al.
# Submitted via: ExactAudioCopy v0.95a5
#
DISCID=fd12a711
DTITLE=Mark Knopfler - Country-Blues Route part2  CD1
DYEAR=2011
DGENRE=Country
TTITLE0=El Macho
TTITLE1=Quality Shoe
TTITLE2=Sucker Row
TTITLE3=Poor Boy Blues (with Chet Atkins)
TTITLE4=Sailing to Philadelphia
TTITLE5=Hard Shoulder
TTITLE6=Beachcombing (with Emmylou Harris)
TTITLE7=Song For Sonny Liston
TTITLE8=I'm The Fool
TTITLE9=Beyond My Wildest Dreams (with Emmylou Harris)
TTITLE10=Working on (instrumental)
TTITLE11=Your Own Sweet Way (with  Notting Hillbillies)
TTITLE12=We Can Get Wild
TTITLE13=The Car Was The One
TTITLE14=Everybody Pays
TTITLE15=No Can Do
TTITLE16=Why Aye Man
EXTD=
EXTT0=
EXTT1=
EXTT2=
EXTT3=
EXTT4=
EXTT5=
EXTT6=
EXTT7=
EXTT8=
EXTT9=
EXTT10=
EXTT11=
EXTT12=
EXTT13=
EXTT14=
EXTT15=
EXTT16=
PLAYORDER=
